<svg xmlns="http://www.w3.org/2000/svg" viewBox="0 0 2856.5 1567"><defs><style>.cls-1{fill:#8d888e;}.cls-2{fill:#aa91af;}.cls-3,.cls-4{fill:#dbdbdb;}.cls-3{stroke:#bf672b;stroke-miterlimit:10;}.cls-5{fill:#d86fdd;}.cls-6{fill:#dccde0;}.cls-7{fill:#fff;}</style></defs><g id="Layer_2" data-name="Layer 2"><g id="Layer_1-2" data-name="Layer 1"><path class="cls-1" d="M457.86,949h0l-.24-.44Z"/><path class="cls-1" d="M507.86,840.05h0l-.24-.44Z"/><path class="cls-2" d="M2856,692.34l-.32.29a1.73,1.73,0,0,0,.32,0v84.84c-12.57-6.88-28.14-10.94-45-10.94l-2,0c7.81-7.8,12.48-17.72,12.48-28.52,0-20.93-17.55-38.55-41.44-43.86a72.83,72.83,0,0,0,5.44-27.64c0-36.91-27.72-68.19-66.05-79,0-.84.05-1.68.05-2.53,0-45-45.22-81.5-101-81.5a123.38,123.38,0,0,0-17.77,1.27,112.52,112.52,0,0,0-200.86,27.83h-.12c-26.11-1.76-50.29,9.61-66.94,28.85a79,79,0,0,0-114.64,17.11,83.47,83.47,0,0,0-16.33-6,82.52,82.52,0,0,0-100.22,59.74c-.66,2.59-1.18,5.17-1.58,7.76-15.11-9.1-34.23-14.54-55-14.54-23.08,0-44.1,6.69-59.86,17.65a74,74,0,0,0-144.37-14.46,112.68,112.68,0,0,0-14.53-4.73,109.86,109.86,0,0,0-57.58.77A77,77,0,0,0,1621,622.56l-.63-.17a61,61,0,0,0-74.11,44.17,58.44,58.44,0,0,0-1.2,6c-15.14-13.81-34.47-22.09-55.53-22.09-46.35,0-84.33,40.1-87.74,91-29.72.1-54.56,19.13-60.76,44.56a97.19,97.19,0,0,0-90.49,7.28q-4.2-.39-8.51-.39a93,93,0,0,0-62.31,23.83c-18.7-20.31-47.23-33.28-79.19-33.28-27,0-51.54,9.25-69.78,24.37a106.23,106.23,0,0,0-116,4.82,81.52,81.52,0,0,0-127.29-25.25c-20.58-14-45.32-25-72.79-32C705.31,721.93,668.94,697,625.5,697c-49.65,0-90.07,32.63-91.46,73.33-37.67,17.33-66.75,43.2-81.76,73.72a66.27,66.27,0,0,0-29.78-7c-32.65,0-60.11,23.76-68.13,56L352,893c-46.88,0-87.27,22.77-105.56,55.55C226,926.79,195.08,913,160.5,913c-31.87,0-60.62,11.76-80.94,30.6C65.9,913.45,38.75,893,7.5,893a66.54,66.54,0,0,0-7.5.41V0H2856Z"/><path class="cls-3" d="M2856,692.34v.26a1.73,1.73,0,0,1-.32,0Z"/><path class="cls-4" d="M2856.5,692.56v37.1l-.5-.34V692.6Z"/><path class="cls-5" d="M507.86,840.05h0l-.24-.44Z"/><path class="cls-5" d="M507.59,839.61l.24.44h0Zm0,0,.24.44h0Zm0,0,.24.44h0Zm0,0,.24.44h0Zm0,0,.24.44h0Zm0,0,.24.44h0Z"/><path class="cls-6" d="M2856,777.44V1057.6a118,118,0,0,0-29.57-12,99,99,0,1,0-176.36-65.38A88.55,88.55,0,0,0,2630,978c-19.43,0-37.66,6.34-53.42,17.45-17-29.78-46.26-49.45-79.58-49.45-20.4,0-39.3,7.38-54.78,19.93C2410.44,933.66,2367.84,914,2321,914a164.46,164.46,0,0,0-54,9.1,171.46,171.46,0,0,0-52.34-28.9c-4.12-30.38-17.34-56.94-36.06-75.22-16.67-16.27-37.71-26-60.57-26-26,0-49.57,12.52-67.1,33a156,156,0,0,0-43.45-36.34,136,136,0,0,0-133-.52,154.21,154.21,0,0,0-38.81,30.5,176.56,176.56,0,0,0-34.91,56.6c-17-19.6-38.43-33-62.08-37.53A94.37,94.37,0,0,0,1721,837c-53.29,0-98.48,44.88-114.13,107q-1.61,6.38-2.79,13a108,108,0,0,0-68.5-26.92,158.23,158.23,0,0,0-161.34-80.42A156.38,156.38,0,0,0,1332,861.92a92.9,92.9,0,0,0-81.45-68.58,97.19,97.19,0,0,1,90.49-7.28c6.2-25.43,31-44.46,60.76-44.56,3.41-50.9,41.39-91,87.74-91,21.06,0,40.39,8.28,55.53,22.09a58.44,58.44,0,0,1,1.2-6,61,61,0,0,1,74.11-44.17l.63.17a77,77,0,0,1,147.69,2.17,109.86,109.86,0,0,1,57.58-.77,112.68,112.68,0,0,1,14.53,4.73,74,74,0,0,1,144.37,14.46c15.76-11,36.78-17.65,59.86-17.65,20.81,0,39.93,5.44,55,14.54.4-2.59.92-5.17,1.58-7.76a82.52,82.52,0,0,1,100.22-59.74,83.47,83.47,0,0,1,16.33,6,79,79,0,0,1,114.64-17.11c16.65-19.24,40.83-30.61,66.94-28.85h.12a112.52,112.52,0,0,1,200.86-27.83,123.38,123.38,0,0,1,17.77-1.27c55.78,0,101,36.49,101,81.5,0,.85,0,1.69-.05,2.53,38.33,10.78,66.05,42.06,66.05,79a72.83,72.83,0,0,1-5.44,27.64c23.89,5.31,41.44,22.93,41.44,43.86,0,10.8-4.67,20.72-12.48,28.52l2,0C2827.86,766.5,2843.43,770.56,2856,777.44Z"/><path class="cls-7" d="M2826.43,1045.63a99,99,0,1,0-176.36-65.38A88.55,88.55,0,0,0,2630,978c-19.43,0-37.66,6.34-53.42,17.45-17-29.78-46.26-49.45-79.58-49.45-20.4,0-39.3,7.38-54.78,19.93C2410.44,933.66,2367.84,914,2321,914a164.46,164.46,0,0,0-54,9.1,171.46,171.46,0,0,0-52.34-28.9c-4.12-30.38-17.34-56.94-36.06-75.22-16.67-16.27-37.71-26-60.57-26-26,0-49.57,12.52-67.1,33a156,156,0,0,0-43.45-36.34,136,136,0,0,0-133-.52,154.21,154.21,0,0,0-38.81,30.5,176.56,176.56,0,0,0-34.91,56.6c-17-19.6-38.43-33-62.08-37.53A94.37,94.37,0,0,0,1721,837c-53.29,0-98.48,44.88-114.13,107q-1.61,6.38-2.79,13a108,108,0,0,0-68.5-26.92,158.23,158.23,0,0,0-161.34-80.42A156.38,156.38,0,0,0,1332,861.92a92.9,92.9,0,0,0-81.45-68.58q-4.2-.39-8.51-.39a93,93,0,0,0-62.31,23.83c-18.7-20.31-47.23-33.28-79.19-33.28-27,0-51.54,9.25-69.78,24.37a106.23,106.23,0,0,0-116,4.82,81.52,81.52,0,0,0-127.29-25.25c-20.58-14-45.32-25-72.79-32C705.31,721.93,668.94,697,625.5,697c-49.65,0-90.07,32.63-91.46,73.33-37.67,17.33-66.75,43.2-81.76,73.72a66.27,66.27,0,0,0-29.78-7c-32.65,0-60.11,23.76-68.13,56L352,893c-46.88,0-87.27,22.77-105.56,55.55C226,926.79,195.08,913,160.5,913c-31.87,0-60.62,11.76-80.94,30.6C65.9,913.45,38.75,893,7.5,893a66.54,66.54,0,0,0-7.5.41V1567H2856V1057.6A118,118,0,0,0,2826.43,1045.63ZM457.83,949l-.24-.44.27.44Zm50-109-.24-.44.27.44Z"/></g></g></svg>